<svg xmlns="http://www.w3.org/2000/svg" viewBox="0 0 54.78 39.72"><defs><style>.cls-1{fill:#3887ff;}.cls-2{fill:#424242;}.cls-3{fill:#eee;}</style></defs><g id="Layer_2" data-name="Layer 2"><g id="Layer_1-2" data-name="Layer 1"><path class="cls-1" d="M54.76,33.63l-1.64-25a2.15,2.15,0,0,0-2-2.08h-10l.13,1.91a.93.93,0,0,1-.26.74,1,1,0,0,1-.71.31,1,1,0,0,1-1-.91L39.19,6.6h-11L28,8.65a1,1,0,0,1-1.7.6,1,1,0,0,1-.26-.74l.13-1.88v0H6.43A1.68,1.68,0,0,0,4.72,8.13a1.61,1.61,0,0,0,1.62,1.7h6a1.69,1.69,0,0,1,1.69,1.81h0a1.69,1.69,0,0,1-1.69,1.58h-.81a1.67,1.67,0,0,0-1.71,1.53,1.61,1.61,0,0,0,1.61,1.7h.48a1.69,1.69,0,0,1,1.68,1.81h0a1.68,1.68,0,0,1-1.68,1.58H1.71A1.69,1.69,0,0,0,0,21.37a1.62,1.62,0,0,0,1.62,1.7h9.87a1.7,1.7,0,0,1,1.69,1.81h0a1.69,1.69,0,0,1-1.69,1.58H8.74a1.62,1.62,0,0,0-1.62,1.62h0A1.63,1.63,0,0,0,8.74,29.7h2.31a1.69,1.69,0,0,1,1.69,1.8h0a1.69,1.69,0,0,1-1.69,1.58H2.43a1.68,1.68,0,0,0-1.7,1.53,1.62,1.62,0,0,0,1.61,1.71H19a4,4,0,0,1,8,0H41.34a4,4,0,0,1,8,0H52.8A2.27,2.27,0,0,0,54.76,33.63Z"/><path class="cls-1" d="M27.05,9.08a.5.5,0,0,0,.5-.47l.13-1.88s0-.09,0-.13a6.1,6.1,0,0,1,6-5.59H34a6,6,0,0,1,5.71,5.56v0l.14,2a.51.51,0,0,0,1-.07L40.68,6.6V6.51a7,7,0,0,0-7-6.51L33,0A7.12,7.12,0,0,0,26.68,6.6v.06l-.14,1.88A.51.51,0,0,0,27.05,9.08Z"/><path class="cls-2" d="M23,33.36a3.18,3.18,0,1,0,3.18,3.18A3.19,3.19,0,0,0,23,33.36Z"/><path class="cls-2" d="M45.36,33.36a3.18,3.18,0,1,0,3.18,3.18A3.18,3.18,0,0,0,45.36,33.36Z"/><path class="cls-3" d="M42.5,22.91H30.56c.48,1.67,1.91,2.64,4,2.64a5.26,5.26,0,0,0,3.79-1.43l3,3.16c-1.58,1.75-3.88,2.66-7,2.66-5.85,0-9.64-3.6-9.64-8.51S28.62,13,33.8,13c4.85,0,8.79,3.09,8.79,8.52C42.59,21.91,42.53,22.46,42.5,22.91Zm-12-3H37.2a3.42,3.42,0,0,0-6.73,0Z"/></g></g></svg>